<svg xmlns="http://www.w3.org/2000/svg" width="40" height="40"><g transform="translate(322 -1086.39)"><g transform="translate(-140.511 -309.972)"><path style="isolation:auto;mix-blend-mode:normal" fill="#fff" d="M-149.99 1411.081v16.781h-31v-31h31v8.961z" color="#000" overflow="visible"/><path fill="#00a5ff" d="M-180.99 1396.862h30.5v4h-30.5z"/><path fill="#0079fd" d="M-180.99 1396.862v1.5h29.75v2.5h1.5v-4z"/><circle style="isolation:auto;mix-blend-mode:normal" cx="-178.989" cy="1398.862" r=".5" fill="#fe2b70" color="#000" overflow="visible"/><circle cx="-176.989" cy="1398.862" r=".5" fill="#f9d259" color="#000" overflow="visible" style="isolation:auto;mix-blend-mode:normal"/><circle style="isolation:auto;mix-blend-mode:normal" cx="-174.989" cy="1398.862" r=".5" fill="#f9d259" color="#000" overflow="visible"/><path style="isolation:auto;mix-blend-mode:normal" fill="none" stroke="#000" stroke-dashoffset=".4" stroke-linecap="round" stroke-linejoin="round" stroke-miterlimit="0" d="M-149.99 1411.081v16.781h-31v-31h31v8.961m0 2.278v.751" color="#000" overflow="visible"/><path fill="none" stroke="#000" d="M-180.99 1400.862h31"/></g><circle cx="-319.5" cy="1093.862" r=".5" color="#000" overflow="visible" style="isolation:auto;mix-blend-mode:normal"/><circle style="isolation:auto;mix-blend-mode:normal" cx="-319.5" cy="1095.862" r=".5" color="#000" overflow="visible"/><circle style="isolation:auto;mix-blend-mode:normal" cx="-319.5" cy="1097.862" r=".5" color="#000" overflow="visible"/><circle cx="-319.5" cy="1099.862" r=".5" color="#000" overflow="visible" style="isolation:auto;mix-blend-mode:normal"/><circle style="isolation:auto;mix-blend-mode:normal" cx="-319.5" cy="1101.862" r=".5" color="#000" overflow="visible"/><circle cx="-319.5" cy="1103.862" r=".5" color="#000" overflow="visible" style="isolation:auto;mix-blend-mode:normal"/><circle cx="-319.5" cy="1105.862" r=".5" color="#000" overflow="visible" style="isolation:auto;mix-blend-mode:normal"/><circle style="isolation:auto;mix-blend-mode:normal" cx="-319.5" cy="1107.862" r=".5" color="#000" overflow="visible"/><circle cx="-319.5" cy="1109.862" r=".5" color="#000" overflow="visible" style="isolation:auto;mix-blend-mode:normal"/><circle style="isolation:auto;mix-blend-mode:normal" cx="-319.5" cy="1111.862" r=".5" color="#000" overflow="visible"/><path fill="none" stroke="#3ddef0" d="M-317 1093.862h5"/><path fill="none" stroke="#f89963" d="M-311 1093.862h2"/><path fill="none" stroke="#f6ec54" d="M-308 1093.862h10"/><path fill="none" stroke="#f89963" d="M-317 1095.862h1"/><path fill="none" stroke="#000" d="M-315 1095.862h8"/><path fill="none" stroke="#f89963" d="M-306 1095.862h1"/><path fill="none" stroke="#f6ec54" d="M-304 1095.862h4m-17 2h8"/><path fill="none" stroke="#f89963" d="M-317 1099.862h2"/><path fill="none" stroke="#000" d="M-314 1099.862h7"/><path fill="none" stroke="#3ddef0" d="M-313 1101.862h4"/><path fill="none" stroke="#000" d="M-313 1103.862h6"/><path fill="none" stroke="#f6ec54" d="M-306 1103.862h1"/><path fill="none" stroke="#000" d="M-313 1105.862h6"/><path fill="none" stroke="#f6ec54" d="M-306 1105.862h1"/><path fill="none" stroke="#3ddef0" d="M-313 1107.862h2"/><path fill="none" stroke="#f6ec54" d="M-317 1109.862h8"/><path fill="none" stroke="#3ddef0" d="M-317 1111.862h5"/><path fill="none" stroke="#000" d="M-311 1111.862h8"/><path fill="none" stroke="#f89963" d="M-308 1109.862h2"/><circle cx="-319.5" cy="1113.862" r=".5" color="#000" overflow="visible" style="isolation:auto;mix-blend-mode:normal"/><path fill="none" stroke="#3ddef0" d="M-317 1113.862h5"/><path fill="none" stroke="#f89963" d="M-311 1113.862h2"/><path fill="none" stroke="#000" d="M-308 1113.862h10"/></g></svg>