<svg xmlns="http://www.w3.org/2000/svg" data-name="Layer 1" viewBox="0 0 512 512"><defs><clipPath id="a"><rect width="429.12" height="285.18" x="41.44" y="172.348" fill="none"/></clipPath></defs><rect width="429.12" height="285.18" x="41.44" y="172.348" fill="#c9effb"/><g clip-path="url(#a)"><rect width="365.76" height="55.977" x="17.86" y="157.981" fill="none" stroke="#577fff" stroke-miterlimit="10" stroke-width="3"/><rect width="75.6" height="254.16" x="342.58" y="99.478" fill="none" stroke="#577fff" stroke-miterlimit="10" stroke-width="3"/><rect width="189.454" height="26.72" x="297.126" y="294.158" fill="none" stroke="#577fff" stroke-miterlimit="10" stroke-width="3"/><rect width="52.589" height="75.45" x="140.2" y="245.428" fill="none" stroke="#577fff" stroke-miterlimit="10" stroke-width="3"/><rect width="135.709" height="95.04" x="123.7" y="422.398" fill="none" stroke="#577fff" stroke-miterlimit="10" stroke-width="3"/><rect width="44.28" height="215.32" x="23.26" y="307.518" fill="none" stroke="#577fff" stroke-miterlimit="10" stroke-width="3"/><rect width="299.794" height="52.92" x="194.346" y="469.918" fill="none" stroke="#577fff" stroke-miterlimit="10" stroke-width="3"/><rect width="44.214" height="126.36" x="239.172" y="104.878" fill="none" stroke="#577fff" stroke-miterlimit="10" stroke-width="3"/><rect width="57.24" height="149.025" x="422.86" y="381.374" fill="none" stroke="#577fff" stroke-miterlimit="10" stroke-width="3"/><rect width="61.047" height="103.68" x="236.079" y="340.318" fill="none" stroke="#577fff" stroke-miterlimit="10" stroke-width="3"/><rect width="73" height="64.262" x="177.7" y="294.158" fill="none" stroke="#577fff" stroke-miterlimit="10" stroke-width="3"/></g><path fill="#350313" d="M194.41782,173.9271s6.4044-25.20388,9.71982-37.43248c2.771-10.22012,12.19382-24.90233,33.39685-27.139a306.66545,306.66545,0,0,0-8.0288,119.54025,302.66959,302.66959,0,0,0,17.43324,68.56182c-18.97434-4.05453-49.6342,17.88411-59.72507,15.54453-22.53926-5.22545-34.4185-32.78239-35.37913-39.64487-2.28653-16.33447-.96782-25.27411,22.68673-64.74079C174.52146,208.61656,190.51146,188.91375,194.41782,173.9271Z"/><path fill="#38101b" d="M194.41782,173.92709s6.4045-25.20372,9.71988-37.43241c2.77084-10.22016,12.19382-24.90234,33.39685-27.139,0,0,24.75936-26.27809,60.61292,4.6387s17.2394,55.25046,19.56779,77.29119S336.11185,299.6513,321.156,329.13714l-89.197,8.25057s-80.43476-39.63747-80.79668-68.56766c-.17337-13.85756-.29542-20.73688,23.359-60.20359C174.52139,208.61646,190.51152,188.91379,194.41782,173.92709Z"/><path fill="#ed9a72" d="M440.51,457.52848h-366.46c14.16992-60.23,25.68994-93.51,25.68994-93.51,4.89014-29.35,27.52-38.84,27.52-38.84l25.72021-9.56q7.16968-2.235,14.33985-4.46l8.94971-2.78,5.21044-1.63,18.35987-5.71a27.585,27.585,0,0,0,8.48-4.35,27.9066,27.9066,0,0,0,10.44971-15.94H218.78c.12012-.53.23-1.07.31982-1.61005.02-.16.0503-.31994.08008-.49.03028-.16.05029-.32995.07031-.49a2.01242,2.01242,0,0,0,.02979-.24c.06006-.39.10986-.78.14014-1.18.04-.49.06982-.99.08984-1.49.00977-.32.02-.64.02-.96v-37.5h70.1001v37.5a27.92053,27.92053,0,0,0,7.87988,19.45,25.355,25.355,0,0,0,2.64014,2.42,5.9287,5.9287,0,0,0,.48974.39,27.97359,27.97359,0,0,0,8.68018,4.49l17.35986,5.4.04.01,19.56006,6.09,14.31982,4.46,8.93018,2.78,17.35986,5.4c8,3.7,14.11035,9.92,18.62989,16.3a79.581,79.581,0,0,1,10.95019,22.54h.11035S426.88013,397.2985,440.51,457.52848Z"/><path fill="#b86a55" d="M246.12214 276.67245c25.00088-4.35788 43.50553-33.3231 43.50553-33.3231s-24.79415-2.04143-40.30059-6.55921H219.52851v37.49431a27.99318 27.99318 0 01-.7552 6.42607l-.0007.0392S221.121 281.03033 246.12214 276.67245zM255.76387 360.929c.37207 3.59445.58935 7.16781.76416 10.73791l.459 10.69138c.03662 1.78125.13037 3.55822.19727 5.33654l.21826 5.33338c.17627 3.55636.355 7.10306.645 10.70514a50.85648 50.85648 0 01-2.54151-10.522 99.936 99.936 0 01-.957-10.762c-.11718-3.59643-.11377-7.19266.08106-10.78326A85.64672 85.64672 0 01255.76387 360.929z"/><path fill="#92dc50" d="M376.95,457.52848H135.73022l8.31006-62.39,8.93994-79.52q7.16968-2.235,14.33985-4.46c10.27,40.28,46.12988,68.97,87.19971,70.06.40039.01.80029.02,1.20019.01,41.83984.57,79.41992-27.72,90.56006-68.69l14.31982,4.46,8.79,78.14h.01026Z"/><path fill="none" stroke="#db3a3a" stroke-dasharray=".661 5.295" stroke-linecap="round" stroke-miterlimit="10" stroke-width="3.253" d="M214.51158,292.03239s36.73246,52.15044,84.6,0"/><path fill="#e9966e" d="M310.91264,184.0987a9.485,9.485,0,0,0-3.98867-.76518c2.274-32.9727-11.76309-61.09972-34.77443-66.06936-23.07547-4.98349-47.54353,14.96559-59.03983,46.08637a9.661,9.661,0,0,0-4.76186-1.40224c-7.43141-.12229-13.60286,8.72586-13.78437,19.76259-.17522,10.65065,5.29672,19.42223,12.35775,20.13458,1.354,26.523,14.5531,47.86629,30.76467,56.04412a15.928,15.928,0,0,0,3.86086,1.077,12.35426,12.35426,0,0,0,3.14364.525c20.32517-.99188,40.3971-14.56845,52.164-38.16326,6.53734,1.33169,14.45222-4.2956,18.45849-13.5398C319.70227,197.66056,317.73219,187.05412,310.91264,184.0987Z"/><path fill="#b86a55" d="M263.31223,208.732a18.52489,18.52489,0,0,1-12.2035,2.908c.12556.04984.25346.08882.38135.1278l-.78144-.16877c.13258.01728.26517.03455.40009.041a18.46834,18.46834,0,0,1-9.80751-7.50255Z"/><path fill="#38101b" d="M234.7132 182.84929c4.2868 0 4.2939-6.66219 0-6.66219-4.28681 0-4.29391 6.66219 0 6.66219zM250.85225 166.64575a33.27385 33.27385 0 01-7.46094-.38085c-1.209-.18077-2.40283-.4138-3.58692-.67865l-1.72753-.409q-.78516-.195-1.58252-.32648a30.492 30.492 0 00-6.51172-.4257c-.55908.01771-1.12061.06106-1.69141.10551-.59912.05936-1.22412.11249-1.84082.14983a25.77435 25.77435 0 01-3.793-.0342 25.81513 25.81513 0 013.1836-2.06185c.54687-.29918 1.083-.58863 1.64843-.86078a14.867 14.867 0 011.84229-.72968 16.53484 16.53484 0 017.938-.515c.65918.13243 1.31689.27584 1.95947.47308.65967.21022 1.17383.38583 1.76123.60249 1.13916.41857 2.26855.869 3.38281 1.3716A33.28166 33.28166 0 01250.85225 166.64575zM268.02559 170.90716a33.27519 33.27519 0 017.43652-.71454c1.22217.002 2.437.058 3.64746.14673.62451.04512 1.165.09732 1.85254.178.667.08553 1.32519.22631 1.98.37774a16.53184 16.53184 0 017.01807 3.74493 14.8816 14.8816 0 011.377 1.42494c.40283.48128.772.96619 1.14648 1.46431a25.78146 25.78146 0 012.04883 3.19188 25.772 25.772 0 01-3.46875-1.53406c-.54638-.28839-1.09375-.59485-1.61523-.89612-.50147-.2761-.99463-.54721-1.49707-.79415a30.496 30.496 0 00-6.10694-2.2995q-.78-.20807-1.57617-.35569l-1.74219-.34037c-1.188-.24749-2.37158-.52779-3.54736-.86205A33.27418 33.27418 0 01268.02559 170.90716z"/><ellipse cx="307.882" cy="202.954" fill="#b86a55" rx="11.631" ry="4.669" transform="rotate(-70.531 307.882 202.954)"/><ellipse cx="204.145" cy="180.551" fill="#b86a55" rx="11.631" ry="4.669" transform="rotate(-85.095 204.145 180.55)"/><path fill="#b86a55" d="M213.10957 163.35053c-.35889 3.26725-.852 6.486-1.38184 9.69362l-1.645 9.59365q-.865 4.781-1.67968 9.5661c-.52539 3.1958-1.04785 6.38333-1.48194 9.64157a46.3036 46.3036 0 01-.23925-9.84287 90.97424 90.97424 0 011.21582-9.752c.58642-3.22 1.27978-6.41663 2.14257-9.57158A78.05217 78.05217 0 01213.10957 163.35053zM307.13643 183.657a78.02142 78.02142 0 01-1.05372 9.76377c-.5166 3.22973-1.20361 6.42773-1.99853 9.60278a90.96381 90.96381 0 01-2.917 9.38452 46.28979 46.28979 0 01-4.27979 8.86688c.94922-3.14685 1.78906-6.2659 2.62891-9.39386q1.23852-4.69326 2.41748-9.4067l2.46142-9.4173C305.236 189.91654 306.11494 186.78123 307.13643 183.657z"/><path fill="#d7645d" d="M231.661,219.12s7.32832,14.669,18.97911,15.00408,19.14915-9.76865,19.14915-9.76865Z"/><path fill="#a75844" d="M231.661,219.12s16.381-1.36963,38.12826,5.23543C269.78926,224.35542,254.83047,226.71378,231.661,219.12Z"/><path fill="#b86a55" d="M312.93613,209.72579c1.631-14.6807-6.76595-25.85116-11.01643-30.47653-.23774-17.05088-1.383-32.4396-4.22305-41.852a45.47545,45.47545,0,0,0-12.71115-14.38242c-7.681-3.91052-17.44258-5.61626-27.00983-5.78825-9.15455,1.83379-18.06372,7.15177-25.83268,15.1058a28.25006,28.25006,0,0,1,5.917-2.20769c22.90235-5.68636,38.3943,9.67351,44.6928,20.28483,7.79625,13.13406,7.50328,21.6948,3.84046,52.28006a167.11368,167.11368,0,0,1-11.81246,44.90567c5.98467,3.685,16.78951-15.67159,22.07378-26.26691,5.22636,1.06465,11.328-2.327,15.61409-8.45042C312.65053,211.86754,312.81383,210.82758,312.93613,209.72579Z"/><path fill="#38101b" d="M250.79855,292.51905s8.34941-2.11612,18.46481-5.78442l.00017-.0008.00587-.0015c1.96759-.71353,4.00117-1.486,6.054-2.31315,9.7325-4.6332,28.01607-17.46836,30.5105-49.13879.077-2.16488.16675-4.3922.28212-6.68442,0,0,5.37892-22.04019,10.83389-37.74072a44.58978,44.58978,0,0,0-9.51688-16.09512c-.31983-22.93369-2.2783-42.86939-7.7991-49.28558-17.17343-19.95847-67.93272-13.03537-72.6397-2.6013-4.70718,10.43375-16.68953,29.93294-14.2791,41.49505,0,0,7.95576-33.04606,30.85817-38.73269,22.90234-5.68636,38.39429,9.67351,44.69279,20.28483,7.79626,13.13406,7.50329,21.6948,3.84046,52.28006-4.19275,35.01023-13.27916,44.83962-17.75548,50.41606C269.87532,254.19311,250.79855,292.51905,250.79855,292.51905Z"/><path fill="#350313" d="M312.93613,209.72579c1.631-14.6807-6.76595-25.85116-11.01643-30.47653-.23774-17.05088-1.383-32.4396-4.22305-41.852a45.47545,45.47545,0,0,0-12.71115-14.38242c-7.681-3.91052-17.44258-5.61626-27.00983-5.78825-7.74227,1.55085-15.30592,5.6019-22.15594,11.62389a28.68532,28.68532,0,0,1,7.7536-3.21491c22.90234-5.68636,38.39429,9.67351,44.69279,20.28483,7.79626,13.13406,7.50329,21.6948,3.84046,52.28006-2.49129,20.80345-6.11691,34.50816-9.58858,43.37527a78.27753,78.27753,0,0,0,14.33655-20.24738c5.22636,1.06465,11.328-2.327,15.61409-8.45042C312.65053,211.86754,312.81383,210.82758,312.93613,209.72579Z"/><path fill="#38101b" d="M299.63913,146.25022l-6.03327,38.65461s-3.90031,41.05172-11.08786,56.67094,19.24143-3.24121,19.24143-3.24121l14.66191-33.53594Z"/><path fill="#350313" d="M280.34983,306.0716l41.35852,23.37782c13.79225-30.78579-1.70072-116.46447-3.993-138.16374-.07535-.71183-.12775-1.42591-.16182-2.14269-5.65465,15.75447-11.43747,39.453-11.43747,39.453-.35693,49.32739-36.85252,58.13786-36.85252,58.13786-.34568.92514-.6258,1.81258-.876,2.68345A24.40844,24.40844,0,0,0,280.34983,306.0716Z"/><path fill="#38101b" d="M269.78926,187.36805a7.95359,7.95359,0,0,1,3.81006-3.66086,7.63777,7.63777,0,0,1,2.75781-.67367,7.7391,7.7391,0,0,1,2.83594.44629,8.86865,8.86865,0,0,1,4.42236,3.29489,7.01976,7.01976,0,0,1,1.23047,5.14282,11.17881,11.17881,0,0,0-2.56592-4.039,11.98739,11.98739,0,0,0-1.78857-1.36032,11.37888,11.37888,0,0,0-2.0293-.94229l-.51367-.18131-.52588-.10959a7.5145,7.5145,0,0,0-1.0625-.1502,9.18926,9.18926,0,0,0-2.18555.2A14.45085,14.45085,0,0,0,269.78926,187.36805Z"/></svg>